<svg version="1.1"  xmlns="http://www.w3.org/2000/svg" viewBox="0 0 520.4 720"
	 xml:space="preserve">
<style type="text/css">
	.st0{fill-rule:evenodd;clip-rule:evenodd;fill:#0047A0;}
	.st1{fill-rule:evenodd;clip-rule:evenodd;fill:#CD313A;}
	.st2{fill:#000000;}
	.st3{fill-rule:evenodd;clip-rule:evenodd;fill:#000000;}
	.st4{fill-rule:evenodd;clip-rule:evenodd;fill:#CD313A;}
	.st5{fill-rule:evenodd;clip-rule:evenodd;fill:#0047A0;}
</style>
<g>
	<path class="st5" d="M255.7,555.6c-9.6,0-19.1,0-28.7,0c-11.1,0-22.1-0.2-33.1-1.7c-2.1-0.3-4.3-0.5-6.3-2.3
		c-2.1-7.5,1.7-21.2,2.8-24.3C174.9,543,157.5,554.1,135,552c7.6-17.7,43.4-33.3,55.5-24.8c1-3,2.2-5.2,2.1-7.8
		C104.1,486,50.2,425.1,42.1,328.2c2.6,2.8,5.1,5.7,7.7,8.5c2.7,18.1,6.6,36,13.4,53.1c19.1,47.6,52.4,82,97.3,105.7
		c11.1,5.9,22.6,10.7,34.8,14.9c1-3.7,2-7.3,2.9-10.7c-70.7-26.7-116.4-75.4-133.6-149.5c1.2,0.9,2.5,1.8,3.7,2.6
		c0.3,0.9,0.8,1.8,1,2.8c14.6,57.2,48.2,99.5,99.8,127.7c9.5,5.2,19.4,9.5,30,12.5c1.1-4.7,2.8-8.8,3-13.3c-1.3-0.6-2.5-1.2-3.7-1.7
		c-18.2-6.3-34.9-15.5-50-27.4c-29.9-23.5-51-53.1-62.2-89.5c1.8,0.6,3.6,1.3,5.4,1.9c0.3,0.6,0.7,1.1,0.9,1.7
		c16.4,45.3,46,78.9,88.8,100.9c7.1,3.6,14.4,6.9,22.5,9.1c2.9-15.2,7.7-29.8,5.1-45.4c-2.3-1.1-4.7-2.2-7-3.4
		c-23.1-11.5-41.8-27.8-55.1-50.1c4.2-0.3,8.5-0.7,12.7-1c12.6,17.7,28.3,32,48.5,41.5c-0.1-1.3-0.2-2.3-0.2-3.2
		c-1.3-16.3-4.8-32.2-8.2-48.2c18.4-7.6,34.4-18.6,47.5-33.6c4.1,0.9,8.2,1.8,12.4,2.7c0.2,3.1,0.4,5.9,0.7,9c2-3.1,0.8-6.2,2-9.3
		c21.4-2.5,33.9-14.5,37-36.1c2.2-2,5.5-0.3,8.1-2c-2.7-1.7-5.8-0.3-8.4-2.2c-0.2-5-1.8-9.9-3.6-14.6c6.8-4.4,13.7-8.5,21.1-11.7
		c9.8-4.3,19.7-8.1,30.4-9.4c-1,25.3-4.2,50.3-11.2,74.6c-5.1,17.5-10.9,34.9-16,52.4c-2.8,9.6-4.6,19.5-5.2,29.8
		c1-0.3,1.7-0.4,2.2-0.7c38.1-21.5,59.6-54,64.1-97.4c2.2-21.4-2-42-10.6-61.7c4.2,0,8.3,0.1,12.5,0.1c7.4,16.9,10.4,34.5,10.2,52.9
		c-0.4,37.2-14.4,68.5-40.9,94.4c-11.2,10.9-24.2,19.2-38.6,25.8c-0.8,15.7,0,31.2,2.4,46.8c17.6-5.8,33.4-14,48-24.7
		c58.8-42.9,83.6-113.6,69.8-180.5c2.1,0.3,3.7,1.7,5.5,2.7c4.3,21.3,4.6,42.7,0.7,64c-9.8,54.6-38.7,96.6-85.7,126
		c-11.7,7.4-24.4,12.8-37.7,17.4c0.3,2.6,0.6,4.8,0.9,7.1c0.4,2.2,0.9,4.4,1.3,6.7c1.3-0.4,2.1-0.6,2.9-0.9
		c40-13.5,72.5-37.3,97.3-71.4c19.6-26.9,31.4-56.9,35.7-90c2.1-16,1.9-31.9,0.5-47.9c1,0.4,2,0.9,3,1.3c0.1,0.7,0.2,1.4,0.3,2
		l0,0.2c1.9,11.8,1.6,23.7,0.6,35.6c-3.4,39.6-17.2,75.3-41.8,106.6c-24.7,31.4-56,53.7-94,66.4c-1.2,0.4-2.4,1-3.9,1.6
		c0.6,3.7,1.2,7.2,1.7,10.9c3.3,0.2,5.9-1.4,8.5-2.4c47.5-17.6,86.5-46.1,113-90c13.8-22.9,22.2-47.7,26.4-74
		c1.5-9.6,1.7-19.4,2.9-29c0-4.2,0-8.5,0-12.7c0.4-0.1,0.8-0.2,1.2-0.3c1.9,2.2,3.8,4.3,5.6,6.5c-0.9,80.7-33,144.3-102.7,187.3
		c-16.5,10.1-34.1,17.9-52.7,24.2c0.6,10.3,4.6,20.1,4,30.8c-4.7,2.3-9.7,2.1-14.5,2.4c-16.1,0.9-32.3,1.8-48.5,1.8"/>
	<path class="st3" d="M328.4,46c6.2,0,11.4,2.6,17.3,2.9c0-10.7,0-21.4,0-32.4c-7-2.4-14.4-1.4-22.4-3.1c-0.6,26.9,2.2,53,0.5,79.6
		c-6.6-1.8-12.9-3.6-19.6-5.5c1.2-29.3-1.7-57.9-0.7-86.4c1.6-1.5,3.3-1,4.9-1c14.9,0,29.7,0,44.6,0c7.9,0,11.7,3.8,11.8,11.8
		c0,15,0,30,0,45.1c0,2.3,0,4.6-1.7,6.6c-4.4,2-6.7,2-14.3-0.6c5.4,16.9,11.5,33,14.8,50.4c-6.2-3.9-12.3-7.7-18.4-11.6
		c-1-0.7-1-2-1.4-3.1c-5-13.6-9.3-27.3-15.1-40.6C327.1,54.4,328,50.2,328.4,46z"/>
	<path class="st3" d="M213,35.5c-4.2,3.7-9.3,5.9-13.3,10.1c4.7,2.1,9.7,3.1,14.1,6.2c0,11,0,22.2,0,34.3c-21.1,4.2-41.6,11-59.8,24
		c-0.3-0.5-0.6-0.9-0.9-1.4c0-36,0-72,0-108.3c18.8,0,37.4,0,56.6,0c1.1,0.4,2,1.8,3.3,3.1C213,13.9,213,24.4,213,35.5z M196.3,56.8
		c-6.5-6.3-14.1-5.2-21.5-5.3c-3.8,0-5.4,1.7-5.3,5.4c0.1,7.1,0,14.2,0.1,21.3c0,2.5-0.6,5.2,0.6,7.7c7.4-1.3,14.6-2.5,21.8-3.8
		c3.1-0.6,4.3-2.7,4.3-5.7C196.3,69.9,196.3,63.3,196.3,56.8z M170.9,11.2c-0.6,9.7-0.5,19.4,0,29.1c9.2,0.9,17.6,0.9,24.1-5.4
		c0-8.1,0-15.8,0-23.7C186.9,11.2,179.2,11.2,170.9,11.2z"/>
	<path class="st3" d="M293,84.1c-7,0.2-12.7,0.4-18.3-0.1c-2.8-5-2.1-10.7-4.8-15.4c-7.2,0.2-14.2-1.8-21.4-0.5
		c-2,5-1.5,10.9-4.6,15.9c-6.1,0-12.1,0-19.3,0c8.3-28.2,16.4-55.8,24.5-83.6c6.8,0,13.2,0,20.4,0C277.7,27.6,285.2,55.4,293,84.1z
		 M266.9,55.8c-1.6-11-5.2-21.4-7.9-32.1c-2.6,10.8-5.2,21.6-8,33.2C256.4,54.1,261.2,57.8,266.9,55.8z"/>
	<path class="st3" d="M422.7,568.2c3.9-0.6,7.4-0.5,11.4-0.1c7.1,11.3,12.3,23.9,19.9,35.4c0-11.6,0-23.2,0-35
		c4.6-1.1,8.8-0.6,13.4-0.5c0,22.6,0,44.9,0,67.6c-3.7,1.2-7.6,0.4-11.8,0.5c-6.2-12.2-12.5-24.5-18.7-36.7
		c-0.3,0.1-0.5,0.2-0.8,0.2c0,11.9,0,23.9,0,36c-4.6,1-8.8,0.6-13.4,0.4C422.7,613.5,422.7,591.1,422.7,568.2z"/>
	<path class="st3" d="M96.2,591.2c-4.8,0.7-8.9,0.4-13.1,0.2c-1.7-4.3,0-8.9-1.2-13.3c-5.3-0.6-10.5-0.4-16-0.1c0,16.1,0,31.8,0,48
		c5.3,0,10.5,0,15.9,0c1.5-4.1-0.1-8.5,1-13c4.1-1,8.3-0.3,13-0.4c0,6.9,0,13.5,0,20.5c-1.6,2.3-4,3.3-7,3.3
		c-9.9-0.1-19.8-0.1-29.7,0c-3,0-5.4-1-7.4-4c0-19.1,0-38.5,0-58c0-3.1,1.6-5,4.7-5.4c11.8-1.6,23.6-1.7,35.4,0
		c2.8,0.4,4.4,2.2,4.5,5.1C96.3,579.6,96.2,585.2,96.2,591.2z"/>
	<path class="st3" d="M361.3,568.1c12.3,0,24.2,0,35.9,0c2,3,1.1,5.9,1,9.4c-7.6,0-15.1,0-23.1,0c0,6.6,0,12.5,0,19.1
		c6.4,0,12.5,0,18.8,0c0.9,3.5,0.5,6.3,0.3,9.4c-6.5,1.2-12.8-0.1-19.3,0.9c0,6.3,0,12.5,0,19.3c7.5,0,15,0,22.5,0
		c1.4,3.4,0.8,6.3,0.6,9.7c-12.2,0-24.3,0-36.9,0C361.3,613.5,361.3,591,361.3,568.1z"/>
	<path class="st3" d="M316.4,578.7c-6.4,0-13.1,0-19.7,0c-1.9-3.6-1.4-6.7-0.6-10.4c12.8,0,25.6,0,38.5,0c0.8,2.8,0.3,5.6,0.3,7.7
		c-8,16.8-15.7,33.1-23.9,50.3c8.8,0,16.6,0,24.5,0c0.6,3.5,0.6,6.3,0.1,9.5c-13.9,0-27.7,0-41.7,0c-1.7-6.2,2.2-10.9,4.4-15.7
		c5.8-12.8,12.1-25.4,18.2-38C316.9,581.3,317.3,580.6,316.4,578.7z"/>
	<path class="st3" d="M227.2,568.3c1.1,4.3,1.1,4.3,0.4,9c-4.4,1.3-9.1-0.2-14.1,1c0,19,0,38,0,57.5c-5.1,0.8-9.6,0.3-14.9,0.4
		c0-19.4,0-38.6,0-58.3c-5.3,0-9.8,0-14.4,0c-1-3.4-0.7-6.3-0.1-9.5C198.5,568.3,212.7,568.3,227.2,568.3z"/>
	<path class="st3" d="M135.3,568.2c4.4-0.6,8.6-0.6,13.1,0c0,22.5,0,44.9,0,67.4c-4.3,0.9-8.5,0.5-13.1,0.3
		C135.3,613.5,135.3,591.1,135.3,568.2z"/>
	<path class="st3" d="M268.2,636c-4.6,0.2-8.6,0.5-13-0.2c0-22.5,0-44.8,0-67.4c4.2-1.3,8.4-0.3,13-0.6
		C268.2,590.6,268.2,613.1,268.2,636z"/>
	<path class="st5" d="M384.5,551.5c-18,4.2-52.1-12.5-54.1-26.5C343.1,518.2,378.2,535.4,384.5,551.5z"/>
	<path class="st5" d="M412.5,534.8c-17.3,6.3-50.9-4.5-57.2-18.3c0.7-1.8,2.3-2.3,3.9-2.4c20.5-1.4,38.5,3.8,52.7,19.4
		C412.2,533.9,412.3,534.4,412.5,534.8z"/>
	<path class="st5" d="M164.6,516.3c-6.8,14.2-40.5,24.9-57.3,18.5C116.5,519.6,152.5,507.8,164.6,516.3z"/>
	<path class="st5" d="M377.4,504.4c12-9.4,46.3-3.4,58.7,10.2C422,523.8,385.7,517.6,377.4,504.4z"/>
	<path class="st5" d="M142.3,504.6c-8.2,12.9-42.3,18.8-58.6,10.4C93.6,501.5,131.1,494.7,142.3,504.6z"/>
	<path class="st5" d="M120.6,490.2c-8.8,11.8-45.2,13.1-58.7,2.2C73.8,480.7,109.9,479.2,120.6,490.2z"/>
	<path class="st5" d="M399.2,490.3c9.4-10.9,44.8-9.7,58.6,1.9C446.1,503.4,407.4,502.1,399.2,490.3z"/>
	<path class="st5" d="M419.8,473.8c7.7-12.1,41.9-15.8,57.7-6.5C469.1,479.5,431.1,484,419.8,473.8z"/>
	<path class="st5" d="M41.9,467.5c16.3-9.5,49.5-5.9,58,6C91.1,483.9,54.3,480.2,41.9,467.5z"/>
	<path class="st5" d="M493.2,440.5c-9.8,14.2-45.2,22.9-55.9,14.1C443.2,441.9,476.1,433.5,493.2,440.5z"/>
	<path class="st5" d="M26.5,440.7c15.7-7.6,51.3,1.4,55.9,13.9C71.8,463.2,38.3,455,26.5,440.7z"/>
	<path class="st5" d="M14.6,412.2c15.6-5.5,47.4,7.2,52.8,21.1C56.2,440.9,21.7,427.1,14.6,412.2z"/>
	<path class="st5" d="M505.5,412c-8.6,15.5-41,28.5-52.9,21.5C456,420.4,487.6,407.4,505.5,412z"/>
	<path class="st5" d="M54.6,409.8c-14,4.3-40.9-11.1-49.1-27.8C18.1,376.5,51.5,395.2,54.6,409.8z"/>
	<path class="st5" d="M45,385.5c-12.2,4.2-40.8-17.9-43.9-34C16.5,349.8,44.4,371.4,45,385.5z"/>
	<path class="st5" d="M38.5,361.4C24.2,361.8,1.1,337.8,0,321.7C14.5,321.3,39.7,347,38.5,361.4z"/>
	<path class="st5" d="M2.3,290.5c14.9,2.2,35.9,30.8,32.4,44C21.7,334.6,1.4,307.1,2.3,290.5z"/>
	<path class="st5" d="M507.7,391.5c-11.5,12.1-25.2,19.1-42.4,19.4c1.2-12.2,25.2-28.4,42.1-29.4
		C507.5,384.8,507.6,388.1,507.7,391.5z"/>
	<path class="st5" d="M505.7,371.3c-8.9,7.8-18.3,14.4-31,14.4c4.4-14.5,14.8-23.3,27.5-30C504,360.7,505.4,365.9,505.7,371.3z"/>
	<path class="st5" d="M494.9,336c3.2,4.6,3.8,10.3,6.7,15.1c-5.7,5.2-11.8,9.8-20.7,10.8C481.6,350.6,488.1,343.3,494.9,336z"/>
	<path class="st5" d="M14.1,263.7c1.3,11.8,5,22.9,9.5,33.8c0.8,1.9,2.2,3.7,2.2,5.9c-12.2-11.8-19-26-18.7-43.5
		C10.3,260.2,12.2,261.9,14.1,263.7z"/>
	<path class="st5" d="M487.5,321.3c1.3,3.7,4.3,6.6,5.3,10.5c-2.1,1.9-4.6,3-7.7,3.1C483.6,329.8,485.2,325.5,487.5,321.3z"/>
	<path class="st0" d="M25.7,303.3c0.3,0.3,0.6,0.7,0.9,1.1C26.1,304.2,25.8,303.9,25.7,303.3z"/>
	<polygon class="st1" points="458.2,290 458.2,289.7 458.4,289.8 	"/>
	<path class="st5" d="M262.2,333.2c1.7-26.2,6.4-32.3,32.4-33.1C298.1,314.7,280,333.5,262.2,333.2z"/>
	<g>
		<path class="st4" d="M457.9,287.7c-1-0.4-2-0.9-3-1.3c-0.2-0.8-0.6-1.6-0.7-2.4c-1.7-15.8-5.4-31.3-11.6-45.8
			c-31.6-73.8-87.1-116.1-167.3-124.5c-28.7-3-56.7,1.3-83.6,11.4C111.3,155.4,59.5,233.9,64.2,319.4c0.6,11.2,2.6,22.2,4.2,33.3
			c-1.2-0.9-2.5-1.8-3.7-2.6c-5.4-24-5.8-48.2-1.9-72.3c5.1-32.1,17.3-61.4,36.9-87.4c28.4-37.9,65.6-63,111.5-74.8
			c29.5-7.6,59.6-8.7,89.2-1.8c74.9,17.4,124.8,63.1,149.8,135.7C454.5,261.8,457.5,274.5,457.9,287.7z"/>
		<path class="st4" d="M49.8,336.7c-2.6-2.8-5.1-5.7-7.7-8.5c-5.6-64.6,14.5-120,60-166.1c13.6-13.8,28.9-25.4,45.7-35.1
			c1.6-0.9,3-2.7,5.3-1.8l-0.1-0.1c-42.2,25.6-73.2,60.8-91,107.1c-12.1,31.5-15.7,64.1-12.5,97.6C49.7,332.1,49.7,334.4,49.8,336.7
			z"/>
		<path class="st4" d="M478.5,309c-1.9-2.2-3.8-4.3-5.6-6.5c-0.4,0.1-0.8,0.2-1.2,0.3c0,4.2,0,8.5,0,12.7c0-10.2-0.5-20.4-1.4-30.6
			c-3.2-32.9-13.8-63.2-31.6-90.9c-17.5-27.2-40.1-49.2-67.5-66.3c-1.8-1.1-4.3-1.7-5-4.1l-0.1,0.1c49.5,27.4,84.9,66.9,102.9,121.2
			C475.8,265.7,478.8,287.1,478.5,309z"/>
		<path class="st4" d="M511.9,260.1c3,16.4-11.5,43.9-25.3,47.8C480.8,295.9,497.3,264.8,511.9,260.1z"/>
		<path class="st4" d="M15.9,226.9c14.3,8.7,25.2,39.2,18.4,50.5C21.7,273.1,10.6,243,15.9,226.9z"/>
		<path class="st4" d="M485.4,277.5c-6.5-12.8,4.9-43.4,18.5-50.5C508.9,243.3,498.5,272.2,485.4,277.5z"/>
		<path class="st4" d="M29.2,197.6c13,11.5,19.5,42.3,11.1,52.2C28.9,244.8,22.2,213.9,29.2,197.6z"/>
		<path class="st4" d="M490.4,197.9c7.7,14.1,0.6,47.2-11,51.9C471.2,239.9,477.5,209.2,490.4,197.9z"/>
		<path class="st4" d="M473.4,171.5c9.6,12.6,7.5,43.9-3.2,52.6C460.5,216.2,462.2,185.1,473.4,171.5z"/>
		<path class="st4" d="M62.7,198.2c-9.5-9-7.6-39.4,3.1-51.9C75.4,155.3,73.6,188.4,62.7,198.2z"/>
		<path class="st4" d="M46.2,171.5c11,12,13.1,42.9,3.9,52.6C39.4,217.5,36.9,184.9,46.2,171.5z"/>
		<path class="st4" d="M89.8,122c6.9,15.3,0.6,44.4-10.8,51.1C70.4,164,77,132.2,89.8,122z"/>
		<path class="st4" d="M453.4,145.8c11.1,12,13.3,42.7,3.9,52.2C446.9,191.3,444.5,160.9,453.4,145.8z"/>
		<path class="st4" d="M440.8,173.1c-11.3-6.3-17.5-34.7-11.1-50.8C441.9,129.1,449.4,163.3,440.8,173.1z"/>
		<path class="st4" d="M403.2,103.4c13.6,8,23.8,35.5,18.1,48.4c-1.8,0.5-3.1-0.6-4.2-1.7C408.3,141.8,398.2,119.5,403.2,103.4z"/>
		<path class="st4" d="M98.7,151.9c-6.6-11.3,4.5-41.5,17.7-48.2C121.6,118.7,110.7,148.1,98.7,151.9z"/>
		<path class="st4" d="M487.5,321.3c5.7-14.2,14.9-25.2,30.4-32c-1.6,19.1-11.1,32.1-25.1,42.4C491.8,327.9,488.8,325.1,487.5,321.3
			z"/>
		<path class="st4" d="M14.1,263.7c12.9,9.3,23.6,34,19.2,44.3c-2.7-0.3-4.9-1.6-6.6-3.7c-0.3-0.4-0.6-0.7-0.9-1.1l0.1,0.2
			c0-2.2-1.4-4-2.2-5.9C19.1,286.6,15.3,275.5,14.1,263.7z"/>
		<path class="st4" d="M494.9,336c6.7-7.5,14.7-12.8,25.5-15.1c-2.7,13-9.2,22.6-18.9,30.2C498.7,346.3,498,340.6,494.9,336z"/>
		<path class="st4" d="M505.7,371.3c-0.3-5.4-1.6-10.6-3.6-15.6c5-2.9,10.4-4.6,17.1-4.7C516.6,359.5,511.9,365.9,505.7,371.3z"/>
		<path class="st4" d="M507.7,391.5c-0.1-3.3-0.2-6.7-0.4-10c2.2-1,4.4-0.8,7.1,0.1C512.9,385.4,510.8,388.8,507.7,391.5z"/>
		<path class="st4" d="M146.7,378.6c-8.4-12.8-13.7-26.8-16.8-41.8c-7-34.1-1.7-66.1,16-96.1c3.9-6.6,8.4-12.6,13.3-18.4
			c4.9-5.6,10.2-10.8,16.1-15.7c2-17.5,3.8-35.2,10.5-52c49.9,0,99.6,0,149.2,0c4.9,8.4,8.7,26.4,11.2,53.3
			c15.5,13.8,28.4,30.1,36.2,50c-4.2,0-8.3-0.1-12.5-0.1c-6.2-11.6-12.8-22.9-22.8-32.7c-0.3,12.4,0.3,24-0.5,35.6
			c-10.7,1.3-20.6,5.1-30.4,9.4c-7.4,3.2-14.3,7.4-21.1,11.7c-7.3-13.1-18.5-20.1-33.1-21.5c-1.3-2.3-0.1-5-2.2-7.1
			c-0.1,1.5-0.2,2.6-0.3,3.8c-0.1,1.1,0.2,2.3-0.8,3.3c-21.5,2.9-33.9,15.1-36.9,36.6c-3.1,1-6.4,0.3-9.4,2c3.3,0.9,6.4-0.1,9.5,1.5
			c1.6,15.9,9.9,27.3,24.9,33.8c-13.2,15-29.1,26-47.5,33.6c-2.6-8.6-5.2-17.3-7.9-25.9c-4.9-16.2-10.1-32.3-13.1-49.1
			c-3.9-21.2-4.1-42.6-3.9-64.1c0-1.7,0-3.4,0-5.9c-11.1,11.2-19.2,23.1-25.1,36.5c-10.2,22.9-12.9,46.7-8.7,71.5
			c2.9,17,9.6,32.4,18.7,46.9C155.2,377.9,150.9,378.3,146.7,378.6z"/>
		<path class="st4" d="M86.2,363.9c-10.6-32.8-11.6-66-2.9-99.3c14.8-56.2,48.8-96.8,101.3-121.3c38.7-18.1,79.3-21.6,120.6-10.5
			c62.6,16.9,104.6,56.7,127.1,117.3c3,8.2,5.3,16.6,6.5,25.3c-1.7-1.1-3.3-2.5-5.5-2.7c-5.2-23.1-14-44.6-27.6-64
			c-27.6-39.2-64.8-64.2-111.9-73.6c-85.3-17-169.7,30.8-200.3,112.9c-9.8,26.1-13.1,53.3-9.8,81.2c1.5,12.5,4.6,24.6,7.8,36.7
			C89.8,365.1,88,364.5,86.2,363.9z"/>
		<path class="st4" d="M259.1,264.1c-0.5,7.4-1.5,14.3-4,21c-2.1,5.6-6.7,8.4-12.1,9.9c-5.5,1.6-11.3,1.9-16.9,2.4
			C224.5,280.7,242.1,262.9,259.1,264.1z"/>
		<path class="st4" d="M249.8,331.8c-13.9-4.1-23.7-16.9-24.1-31.7c8.5,0.2,17.1,0.4,24.4,5.5c5.6,3.9,6.8,10.2,7.4,16.5
			C254.7,325.1,252.1,328.3,249.8,331.8z"/>
		<path class="st4" d="M279.6,295.1c-8-1.4-12.9-6.1-14.9-13.9c-1.5-5.6-2.2-11.2-2.8-16.9c11.1-2,25.4,7.6,30.6,20
			C287.7,287.4,283.2,290.8,279.6,295.1z"/>
	</g>
	<path class="st5" d="M279.6,295.1c3.6-4.4,8.1-7.8,12.9-10.7c2.2,3.9,3.3,8,2.7,12.9C289.8,296.8,284.6,296.6,279.6,295.1z"/>
	<path class="st5" d="M249.8,331.8c2.2-3.5,4.9-6.7,7.7-9.7c0.9,3.6,2,7.2,1.1,11.5C255.6,333.4,252.7,333,249.8,331.8z"/>
	<path class="st2" d="M140.3,677.3h5.9v42.2h-5.9V677.3z M145,701l18.6-23.7h7.3l-26.8,32.6L145,701z M152,697l4.7-4.3l16,26.9h-7.3
		L152,697z"/>
	<path class="st2" d="M200.6,718c-2.2-1.3-4-3.1-5.2-5.5c-1.2-2.4-1.8-5.1-1.8-8.2v-12c0-3.1,0.6-5.8,1.8-8.2c1.2-2.4,3-4.2,5.2-5.5
		c2.2-1.3,4.8-1.9,7.8-1.9c2.9,0,5.5,0.6,7.8,1.9c2.2,1.3,4,3.1,5.2,5.5c1.2,2.4,1.8,5.1,1.8,8.2v12c0,3.1-0.6,5.8-1.8,8.2
		c-1.2,2.4-3,4.2-5.2,5.5c-2.2,1.3-4.8,1.9-7.8,1.9C205.5,720,202.9,719.3,200.6,718z M213,713c1.3-0.8,2.4-1.9,3.1-3.3
		c0.7-1.4,1.1-3.1,1.1-5v-12.4c0-1.9-0.4-3.6-1.1-5c-0.7-1.4-1.7-2.6-3.1-3.3c-1.3-0.8-2.9-1.2-4.6-1.2c-1.7,0-3.3,0.4-4.6,1.2
		c-1.3,0.8-2.4,1.9-3.1,3.3c-0.7,1.4-1.1,3.1-1.1,5v12.4c0,1.9,0.4,3.6,1.1,5c0.7,1.4,1.7,2.6,3.1,3.3c1.3,0.8,2.9,1.2,4.6,1.2
		C210.1,714.1,211.7,713.7,213,713z"/>
	<path class="st2" d="M248.8,677.3h5.9v42.2h-5.9V677.3z M251.4,696h14.4c1.1,0,2.1-0.3,3-0.8c0.9-0.5,1.5-1.3,2-2.3
		c0.5-1,0.7-2.1,0.7-3.4s-0.2-2.4-0.7-3.4c-0.5-1-1.2-1.8-2-2.3c-0.9-0.5-1.9-0.8-3-0.8h-14.4v-5.6h14.2c2.4,0,4.6,0.5,6.4,1.5
		c1.9,1,3.3,2.4,4.3,4.3c1,1.8,1.5,4,1.5,6.4s-0.5,4.6-1.5,6.4s-2.5,3.3-4.3,4.3c-1.9,1-4,1.5-6.4,1.5h-14.2V696z M262.9,700.4
		l5.9-1.3l10.8,20.5h-7L262.9,700.4z"/>
	<path class="st2" d="M303.5,677.3h5.9v42.2h-5.9V677.3z M306.4,677.3h24.2v5.6h-24.2V677.3z M306.4,695.8h21.1v5.6h-21.1V695.8z
		 M306.4,713.9h24.2v5.6h-24.2V713.9z"/>
	<path class="st2" d="M366.5,677.3h5.1l15.6,42.2h-6.4l-11.7-34l-11.7,34H351L366.5,677.3z M358.1,704.6h22.2v5.6h-22.2V704.6z"/>
</g>
</svg>
